<?xml version="1.0" encoding="UTF-8" standalone="no"?>
<!-- Created with Inkscape (http://www.inkscape.org/) -->

<svg
   width="768mm"
   height="256mm"
   viewBox="0 0 768 256"
   version="1.1"
   id="svg1"
   xml:space="preserve"
   inkscape:version="1.3.2 (091e20ef0f, 2023-11-25, custom)"
   sodipodi:docname="banner.inkscape.svg"
   inkscape:export-filename="banner.png"
   inkscape:export-xdpi="96"
   inkscape:export-ydpi="96"
   xmlns:inkscape="http://www.inkscape.org/namespaces/inkscape"
   xmlns:sodipodi="http://sodipodi.sourceforge.net/DTD/sodipodi-0.dtd"
   xmlns:xlink="http://www.w3.org/1999/xlink"
   xmlns="http://www.w3.org/2000/svg"
   xmlns:svg="http://www.w3.org/2000/svg"><sodipodi:namedview
     id="namedview1"
     pagecolor="#ffffff"
     bordercolor="#000000"
     borderopacity="0.25"
     inkscape:showpageshadow="2"
     inkscape:pageopacity="0.0"
     inkscape:pagecheckerboard="0"
     inkscape:deskcolor="#d1d1d1"
     inkscape:document-units="mm"
     showgrid="true"
     inkscape:zoom="0.10512601"
     inkscape:cx="480.37586"
     inkscape:cy="2392.3669"
     inkscape:window-width="2536"
     inkscape:window-height="1343"
     inkscape:window-x="0"
     inkscape:window-y="0"
     inkscape:window-maximized="1"
     inkscape:current-layer="g5"><inkscape:grid
       id="grid1"
       units="mm"
       originx="0"
       originy="0"
       spacingx="0.99999997"
       spacingy="0.99999997"
       empcolor="#0099e5"
       empopacity="0.30196078"
       color="#0099e5"
       opacity="0.14901961"
       empspacing="5"
       dotted="false"
       gridanglex="30"
       gridanglez="30"
       visible="true" /></sodipodi:namedview><defs
     id="defs1"><linearGradient
       id="linearGradient1"
       inkscape:collect="always"><stop
         style="stop-color:#1dd3b0;stop-opacity:1;"
         offset="0"
         id="stop1" /><stop
         style="stop-color:#affc41;stop-opacity:1;"
         offset="1"
         id="stop2" /></linearGradient><linearGradient
       id="linearGradient6"><stop
         style="stop-color:#1dd3b0;stop-opacity:1;"
         offset="0"
         id="stop6" /><stop
         style="stop-color:#affc41;stop-opacity:1;"
         offset="1"
         id="stop7" /></linearGradient><linearGradient
       xlink:href="#linearGradient6"
       id="linearGradient7"
       x1="18.404142"
       y1="31.47007"
       x2="51.398937"
       y2="31.47007"
       gradientUnits="userSpaceOnUse" /><linearGradient
       inkscape:collect="always"
       xlink:href="#linearGradient1"
       id="linearGradient2"
       x1="0"
       y1="18"
       x2="36"
       y2="18"
       gradientUnits="userSpaceOnUse" /><linearGradient
       inkscape:collect="always"
       xlink:href="#linearGradient1"
       id="linearGradient4"
       gradientUnits="userSpaceOnUse"
       x1="0"
       y1="18"
       x2="36"
       y2="18" /><linearGradient
       inkscape:collect="always"
       xlink:href="#linearGradient1"
       id="linearGradient5"
       gradientUnits="userSpaceOnUse"
       x1="0"
       y1="18"
       x2="36"
       y2="18" /></defs><g
     inkscape:label="Layer 1"
     inkscape:groupmode="layer"
     id="layer1"><g
       id="g2"
       transform="matrix(4.7134042,0,0,4.7134042,-6.2803444,-20.331162)"
       style="fill:url(#linearGradient7)"
       inkscape:label="Icon"><ellipse
         style="fill:#3c1642;fill-opacity:1;stroke-width:0.974638"
         id="path2"
         cx="33.939335"
         cy="33.939331"
         rx="13.629575"
         ry="13.629576" /><path
         d="m 30.989595,13.744081 c -0.391592,0 -0.709039,0.317448 -0.709039,0.70904 V 15.8712 c 0,0.391591 0.317448,0.709039 0.709039,0.709039 h 1.06356 v 1.877183 c -7.67039,0.882754 -13.649012,7.414426 -13.649012,15.317027 0,8.502447 6.919163,15.421611 15.42161,15.421611 8.502449,0 15.421611,-6.919164 15.421611,-15.421611 0.0024,-2.910146 -0.823901,-5.760812 -2.382373,-8.218478 l 1.502456,-1.216357 0.669333,0.826741 c 0.246296,0.30449 0.692811,0.351634 0.997265,0.105291 l 1.102556,-0.892679 c 0.303926,-0.246585 0.350578,-0.692793 0.104229,-0.99691 L 47.671524,18.973249 C 47.425228,18.66876 46.978715,18.621616 46.674261,18.867956 l -1.102558,0.892681 c -0.303926,0.246585 -0.350578,0.692792 -0.104229,0.99691 l 0.669689,0.82674 -1.496075,1.210331 c -2.388399,-2.353304 -5.539017,-3.933044 -9.042735,-4.336487 v -1.877892 h 1.06356 c 0.391591,0 0.709039,-0.317448 0.709039,-0.709039 v -1.418079 c 0,-0.391592 -0.317447,-0.70904 -0.709039,-0.70904 z m 2.836158,7.090396 c 7.1613,0 12.939974,5.778672 12.939974,12.939972 0,7.161299 -5.778674,12.939972 -12.939974,12.939972 -7.161299,0 -12.939971,-5.778673 -12.939971,-12.939972 0,-7.1613 5.778672,-12.939972 12.939971,-12.939972 z"
         fill="#000000"
         id="path1"
         style="fill:#1dd3b0;fill-opacity:1;stroke-width:0.35452" /><g
         style="fill:url(#linearGradient2)"
         id="g1"
         transform="matrix(0.55764964,0,0,0.55764964,23.788061,23.78806)"><path
           d="M 32,5 H 4 A 2,2 0 0 0 2,7 v 22 a 2,2 0 0 0 2,2 h 28 a 2,2 0 0 0 2,-2 V 7 A 2,2 0 0 0 32,5 Z M 6.8,15.81 v -2.64 l 10,4.59 v 2.08 l -10,4.59 v -2.65 l 6.51,-3 z M 23.4,25.4 H 17 V 23 h 6.4 z M 4,9.2 V 7 h 28 v 2.2 z"
           class="clr-i-solid clr-i-solid-path-1"
           id="path1-6"
           style="fill:url(#linearGradient4)" /><rect
           x="0"
           y="0"
           width="36"
           height="36"
           fill-opacity="0"
           id="rect1"
           style="fill:url(#linearGradient5)" /></g></g><text
       xml:space="preserve"
       style="font-size:100px;font-family:Shrikhand;-inkscape-font-specification:Shrikhand;letter-spacing:0px;fill:#1dd3b0;fill-opacity:1;stroke-width:1.32292"
       x="272.93164"
       y="163.66832"
       id="text5"><tspan
         sodipodi:role="line"
         id="tspan5"
         style="font-style:normal;font-variant:normal;font-weight:normal;font-stretch:normal;font-size:100px;font-family:Righteous;-inkscape-font-specification:Righteous;fill:#1dd3b0;fill-opacity:1;stroke-width:1.32292"
         x="272.93164"
         y="163.66832">Cronthat</tspan></text><g
       id="g5"
       inkscape:label="marks"
       style="display:none"><rect
         style="fill:#ff00ff;fill-opacity:1;stroke-width:1.4321"
         id="rect5"
         width="75"
         height="256"
         x="0"
         y="0" /><rect
         style="fill:#ff00ff;fill-opacity:1;stroke-width:1.4321"
         id="rect5-7"
         width="75"
         height="256"
         x="693"
         y="2.8421709e-14" /><rect
         style="fill:#00ff00;fill-opacity:1;stroke-width:1.04586"
         id="rect5-0"
         width="40"
         height="256"
         x="235.95404"
         y="4.6899606e-07" /></g></g></svg>
