<?xml version="1.0" encoding="UTF-8" standalone="no"?>
<!-- Created with Inkscape (http://www.inkscape.org/) -->

<svg
   width="251.99998"
   height="252.00002"
   viewBox="0 0 66.674994 66.675004"
   version="1.1"
   id="svg1"
   xml:space="preserve"
   xmlns:xlink="http://www.w3.org/1999/xlink"
   xmlns="http://www.w3.org/2000/svg"
   xmlns:svg="http://www.w3.org/2000/svg"><defs
     id="defs1"><linearGradient
       id="linearGradient6"><stop
         style="stop-color:#1dd3b0;stop-opacity:1;"
         offset="0"
         id="stop6" /><stop
         style="stop-color:#affc41;stop-opacity:1;"
         offset="1"
         id="stop7" /></linearGradient><linearGradient
       xlink:href="#linearGradient6"
       id="linearGradient7"
       x1="18.404142"
       y1="31.47007"
       x2="51.398937"
       y2="31.47007"
       gradientUnits="userSpaceOnUse" /><linearGradient
       xlink:href="#linearGradient6"
       id="linearGradient2"
       gradientUnits="userSpaceOnUse"
       x1="18.404142"
       y1="31.47007"
       x2="51.398937"
       y2="31.47007" /><linearGradient
       xlink:href="#linearGradient6"
       id="linearGradient3"
       gradientUnits="userSpaceOnUse"
       x1="18.404142"
       y1="31.47007"
       x2="51.398937"
       y2="31.47007" /><linearGradient
       xlink:href="#linearGradient6"
       id="linearGradient4"
       gradientUnits="userSpaceOnUse"
       x1="18.404142"
       y1="31.47007"
       x2="51.398937"
       y2="31.47007" /><linearGradient
       xlink:href="#linearGradient6"
       id="linearGradient5"
       gradientUnits="userSpaceOnUse"
       x1="18.404142"
       y1="31.47007"
       x2="51.398937"
       y2="31.47007" /></defs><g
     id="layer1"><g
       id="g2"
       transform="matrix(1.4307122,0,0,1.4307122,-15.057419,-15.057418)"
       style="fill:url(#linearGradient7)"><rect
         style="display:none;fill:url(#linearGradient2);fill-opacity:1;stroke-width:1.25891"
         id="rect2"
         width="30.842529"
         height="30.74061"
         x="18.40449"
         y="18.455448" /><ellipse
         style="fill:#3c1642;fill-opacity:1;stroke-width:0.974638"
         id="path2"
         cx="33.939335"
         cy="33.939331"
         rx="13.629575"
         ry="13.629576" /><path
         d="m 30.989595,13.744081 c -0.391592,0 -0.709039,0.317448 -0.709039,0.70904 V 15.8712 c 0,0.391591 0.317448,0.709039 0.709039,0.709039 h 1.06356 v 1.877183 c -7.67039,0.882754 -13.649012,7.414426 -13.649012,15.317027 0,8.502447 6.919163,15.421611 15.42161,15.421611 8.502449,0 15.421611,-6.919164 15.421611,-15.421611 0.0024,-2.910146 -0.823901,-5.760812 -2.382373,-8.218478 l 1.502456,-1.216357 0.669333,0.826741 c 0.246296,0.30449 0.692811,0.351634 0.997265,0.105291 l 1.102556,-0.892679 c 0.303926,-0.246585 0.350578,-0.692793 0.104229,-0.99691 L 47.671524,18.973249 C 47.425228,18.66876 46.978715,18.621616 46.674261,18.867956 l -1.102558,0.892681 c -0.303926,0.246585 -0.350578,0.692792 -0.104229,0.99691 l 0.669689,0.82674 -1.496075,1.210331 c -2.388399,-2.353304 -5.539017,-3.933044 -9.042735,-4.336487 v -1.877892 h 1.06356 c 0.391591,0 0.709039,-0.317448 0.709039,-0.709039 v -1.418079 c 0,-0.391592 -0.317447,-0.70904 -0.709039,-0.70904 z m 2.836158,7.090396 c 7.1613,0 12.939974,5.778672 12.939974,12.939972 0,7.161299 -5.778674,12.939972 -12.939974,12.939972 -7.161299,0 -12.939971,-5.778673 -12.939971,-12.939972 0,-7.1613 5.778672,-12.939972 12.939971,-12.939972 z"
         fill="#000000"
         id="path1"
         style="fill:#1dd3b0;fill-opacity:1;stroke-width:0.35452" /><g
         style="fill:url(#linearGradient5)"
         id="g1"
         transform="matrix(0.55764964,0,0,0.55764964,23.788061,23.78806)"><path
           d="M 32,5 H 4 A 2,2 0 0 0 2,7 v 22 a 2,2 0 0 0 2,2 h 28 a 2,2 0 0 0 2,-2 V 7 A 2,2 0 0 0 32,5 Z M 6.8,15.81 v -2.64 l 10,4.59 v 2.08 l -10,4.59 v -2.65 l 6.51,-3 z M 23.4,25.4 H 17 V 23 h 6.4 z M 4,9.2 V 7 h 28 v 2.2 z"
           class="clr-i-solid clr-i-solid-path-1"
           id="path1-6"
           style="fill:url(#linearGradient3)" /><rect
           x="0"
           y="0"
           width="36"
           height="36"
           fill-opacity="0"
           id="rect1"
           style="fill:url(#linearGradient4)" /></g></g></g></svg>
